# xmcd
#
# Track frame offsets: 
#        150
#        21509
#        22470
#        46959
#        69853
#        75558
#        94542
#        101930
#        122834
#        125862
#        150657
#        167092
#        190810
#        192709
#        216463
#
# Disc length: 3428 seconds
#
# Revision: 1
# Processed by: cddbd v1.5.2PL0 Copyright (c) Steve Scherf et al.
# Submitted via: ExactAudioCopy v1.0b6
#
DISCID=df0d620f
DTITLE=Samy Thiébault - A feast of friends
DYEAR=2014
DGENRE=Jazz
TTITLE0=Riders on the storm
TTITLE1=The hitchhiker
TTITLE2=Telluric movements
TTITLE3=Light my fire
TTITLE4=The movie
TTITLE5=People are strange
TTITLE6=Invocation
TTITLE7=The crystal ship
TTITLE8=Petition the lord with prayer
TTITLE9=The soft parade
TTITLE10=Blue sunday
TTITLE11=Blue words
TTITLE12=The blue bus
TTITLE13=Hara
TTITLE14=Tribal dance
EXTD=YEAR: 2014
EXTT0=
EXTT1=
EXTT2=
EXTT3=
EXTT4=
EXTT5=
EXTT6=
EXTT7=
EXTT8=
EXTT9=
EXTT10=
EXTT11=
EXTT12=
EXTT13=
EXTT14=
PLAYORDER=
